<svg width="23" height="23" viewBox="0 0 23 23" fill="none" xmlns="http://www.w3.org/2000/svg">
<path fill-rule="evenodd" clip-rule="evenodd" d="M11.4623 0C5.12936 0 0 5.12936 0 11.4623C0 16.5343 3.28107 20.8183 7.83732 22.3371C8.41044 22.4374 8.62535 22.0935 8.62535 21.7926C8.62535 21.5204 8.61103 20.6177 8.61103 19.6578C5.73113 20.1879 4.98609 18.9557 4.75684 18.311C4.62789 17.9814 4.0691 16.9642 3.58196 16.6919C3.18078 16.477 2.60767 15.9469 3.56763 15.9325C4.47028 15.9182 5.11504 16.7636 5.32995 17.1074C6.36156 18.8411 8.00926 18.354 8.66834 18.0531C8.76863 17.308 9.06952 16.8065 9.39906 16.52C6.8487 16.2334 4.18373 15.2448 4.18373 10.8605C4.18373 9.61397 4.62789 8.58237 5.35861 7.78001C5.24399 7.49346 4.84281 6.31857 5.47323 4.74251C5.47323 4.74251 6.4332 4.44163 8.62535 5.91739C9.54234 5.65949 10.5166 5.53054 11.4909 5.53054C12.4652 5.53054 13.4395 5.65949 14.3565 5.91739C16.5486 4.4273 17.5086 4.74251 17.5086 4.74251C18.139 6.31857 17.7379 7.49346 17.6232 7.78001C18.354 8.58237 18.7981 9.59965 18.7981 10.8605C18.7981 15.2591 16.1188 16.2334 13.5685 16.52C13.984 16.8782 14.3422 17.5659 14.3422 18.6405C14.3422 20.1736 14.3278 21.4058 14.3278 21.7926C14.3278 22.0935 14.5427 22.4517 15.1159 22.3371C17.3913 21.5689 19.3685 20.1064 20.7693 18.1556C22.1701 16.2048 22.9238 13.8639 22.9245 11.4623C22.9245 5.12936 17.7952 0 11.4623 0Z" fill="#23E537"/>
</svg>
