<svg width="23" height="23" viewBox="0 0 23 23" fill="none" xmlns="http://www.w3.org/2000/svg">
<path fill-rule="evenodd" clip-rule="evenodd" d="M6.76431 0.108685C7.98434 0.0525202 8.37334 0.0400391 11.4811 0.0400391C14.5889 0.0400391 14.9779 0.0535603 16.1969 0.108685C17.4159 0.16381 18.248 0.358308 18.9761 0.640174C19.7384 0.92828 20.4301 1.37864 21.0022 1.96109C21.5846 2.53211 22.0339 3.22273 22.321 3.98616C22.6039 4.71422 22.7974 5.5463 22.8535 6.76321C22.9097 7.98532 22.9222 8.37432 22.9222 11.4811C22.9222 14.5889 22.9087 14.9779 22.8535 16.1979C22.7984 17.4148 22.6039 18.2469 22.321 18.975C22.0339 19.7385 21.5839 20.4303 21.0022 21.0021C20.4301 21.5846 19.7384 22.0339 18.9761 22.3209C18.248 22.6038 17.4159 22.7973 16.199 22.8535C14.9779 22.9096 14.5889 22.9221 11.4811 22.9221C8.37334 22.9221 7.98434 22.9086 6.76431 22.8535C5.5474 22.7983 4.71532 22.6038 3.98726 22.3209C3.22375 22.0338 2.53198 21.5838 1.96011 21.0021C1.37806 20.4307 0.927628 19.7393 0.640235 18.976C0.358369 18.2479 0.164911 17.4159 0.108746 16.1989C0.0525812 14.9768 0.0401001 14.5878 0.0401001 11.4811C0.0401001 8.37328 0.0536213 7.98428 0.108746 6.76529C0.163871 5.5463 0.358369 4.71422 0.640235 3.98616C0.928052 3.22281 1.37883 2.53139 1.96115 1.96005C2.53221 1.37812 3.22328 0.927701 3.98622 0.640174C4.71428 0.358308 5.54636 0.16485 6.76327 0.108685H6.76431ZM16.1044 2.16807C14.8978 2.11295 14.5359 2.10151 11.4811 2.10151C8.42638 2.10151 8.06443 2.11295 6.85792 2.16807C5.7419 2.21904 5.13656 2.40521 4.73301 2.56227C4.19944 2.77029 3.81772 3.01679 3.41729 3.41723C3.0377 3.78651 2.74557 4.23607 2.56233 4.73294C2.40527 5.1365 2.2191 5.74184 2.16813 6.85786C2.11301 8.06437 2.10157 8.42632 2.10157 11.4811C2.10157 14.5358 2.11301 14.8978 2.16813 16.1043C2.2191 17.2203 2.40527 17.8257 2.56233 18.2292C2.74539 18.7253 3.03765 19.1757 3.41729 19.5449C3.78652 19.9246 4.23688 20.2168 4.73301 20.3999C5.13656 20.5569 5.7419 20.7431 6.85792 20.7941C8.06443 20.8492 8.42534 20.8606 11.4811 20.8606C14.5369 20.8606 14.8978 20.8492 16.1044 20.7941C17.2204 20.7431 17.8257 20.5569 18.2293 20.3999C18.7628 20.1919 19.1446 19.9454 19.545 19.5449C19.9246 19.1757 20.2169 18.7253 20.3999 18.2292C20.557 17.8257 20.7432 17.2203 20.7941 16.1043C20.8493 14.8978 20.8607 14.5358 20.8607 11.4811C20.8607 8.42632 20.8493 8.06437 20.7941 6.85786C20.7432 5.74184 20.557 5.1365 20.3999 4.73294C20.1919 4.19938 19.9454 3.81766 19.545 3.41723C19.1757 3.03767 18.7261 2.74554 18.2293 2.56227C17.8257 2.40521 17.2204 2.21904 16.1044 2.16807V2.16807ZM10.0198 15.008C10.8359 15.3478 11.7447 15.3936 12.5908 15.1378C13.437 14.8819 14.1681 14.3402 14.6593 13.6052C15.1504 12.8702 15.3711 11.9875 15.2838 11.1078C15.1964 10.2281 14.8063 9.40606 14.1802 8.78203C13.781 8.38313 13.2984 8.07769 12.767 7.8877C12.2357 7.69771 11.6688 7.6279 11.1072 7.68329C10.5456 7.73868 10.0033 7.9179 9.51932 8.20804C9.03531 8.49817 8.62165 8.89202 8.30813 9.36121C7.9946 9.8304 7.789 10.3633 7.70613 10.9215C7.62326 11.4797 7.66519 12.0493 7.82889 12.5893C7.99259 13.1294 8.27399 13.6264 8.65283 14.0446C9.03167 14.4629 9.49854 14.7919 10.0198 15.008ZM7.32284 7.32278C7.86892 6.7767 8.5172 6.34353 9.23068 6.048C9.94417 5.75247 10.7089 5.60036 11.4811 5.60036C12.2534 5.60036 13.0181 5.75247 13.7316 6.048C14.4451 6.34353 15.0934 6.7767 15.6394 7.32278C16.1855 7.86886 16.6187 8.51714 16.9142 9.23062C17.2097 9.9441 17.3619 10.7088 17.3619 11.4811C17.3619 12.2533 17.2097 13.018 16.9142 13.7315C16.6187 14.445 16.1855 15.0933 15.6394 15.6394C14.5366 16.7422 13.0408 17.3618 11.4811 17.3618C9.92147 17.3618 8.42569 16.7422 7.32284 15.6394C6.21999 14.5365 5.60042 13.0407 5.60042 11.4811C5.60042 9.92141 6.21999 8.42563 7.32284 7.32278V7.32278ZM18.6661 6.47614C18.8014 6.34849 18.9098 6.19499 18.9847 6.02472C19.0596 5.85444 19.0996 5.67087 19.1023 5.48486C19.1051 5.29885 19.0704 5.11419 19.0005 4.94181C18.9305 4.76942 18.8267 4.61283 18.6952 4.48128C18.5636 4.34974 18.4071 4.24593 18.2347 4.17599C18.0623 4.10606 17.8776 4.07142 17.6916 4.07413C17.5056 4.07684 17.322 4.11685 17.1518 4.19178C16.9815 4.26671 16.828 4.37504 16.7003 4.51036C16.4521 4.77354 16.3162 5.12311 16.3214 5.48486C16.3267 5.84661 16.4728 6.19207 16.7286 6.4479C16.9844 6.70372 17.3299 6.84977 17.6916 6.85505C18.0534 6.86032 18.4029 6.7244 18.6661 6.47614V6.47614Z" fill="#23E537"/>
</svg>
