<svg width="22" height="22" viewBox="0 0 22 22" fill="none" xmlns="http://www.w3.org/2000/svg">
<path fill-rule="evenodd" clip-rule="evenodd" d="M2.71418e-07 1.83367C2.71418e-07 1.34735 0.193189 0.880949 0.537068 0.53707C0.880947 0.193192 1.34735 2.44453e-06 1.83367 2.44453e-06H20.1125C20.3535 -0.000391177 20.5922 0.0467548 20.8149 0.138741C21.0377 0.230727 21.2401 0.365748 21.4106 0.536071C21.5811 0.706395 21.7164 0.908678 21.8086 1.13134C21.9008 1.354 21.9482 1.59266 21.9481 1.83367V20.1125C21.9484 20.3535 21.9011 20.5922 21.809 20.815C21.7169 21.0378 21.5818 21.2402 21.4114 21.4107C21.241 21.5812 21.0386 21.7164 20.8159 21.8086C20.5932 21.9008 20.3545 21.9482 20.1134 21.9481H1.83367C1.59278 21.9481 1.35426 21.9007 1.13172 21.8084C0.909186 21.7162 0.707 21.5811 0.536715 21.4107C0.366431 21.2403 0.231385 21.0381 0.139293 20.8155C0.0472017 20.5929 -0.000130786 20.3543 2.71418e-07 20.1135V1.83367ZM8.68746 8.36822H11.6594V9.86069C12.0884 9.00272 13.1858 8.23055 14.8349 8.23055C17.9965 8.23055 18.7457 9.93951 18.7457 13.0751V18.8834H15.5462V13.7894C15.5462 12.0036 15.1173 10.996 14.0278 10.996C12.5164 10.996 11.8879 12.0824 11.8879 13.7894V18.8834H8.68746V8.36822ZM3.20043 18.7467H6.40087V8.23055H3.20043V18.7457V18.7467ZM6.85879 4.80065C6.86482 5.07468 6.81606 5.34715 6.71536 5.60207C6.61467 5.857 6.46407 6.08924 6.2724 6.28518C6.08074 6.48111 5.85186 6.63679 5.59922 6.74307C5.34657 6.84935 5.07524 6.9041 4.80115 6.9041C4.52706 6.9041 4.25573 6.84935 4.00308 6.74307C3.75044 6.63679 3.52156 6.48111 3.3299 6.28518C3.13823 6.08924 2.98763 5.857 2.88694 5.60207C2.78624 5.34715 2.73748 5.07468 2.74351 4.80065C2.75536 4.26278 2.97735 3.75093 3.36194 3.37471C3.74653 2.99849 4.26315 2.78783 4.80115 2.78783C5.33915 2.78783 5.85577 2.99849 6.24036 3.37471C6.62495 3.75093 6.84694 4.26278 6.85879 4.80065V4.80065Z" fill="#23E537"/>
</svg>
